<svg xmlns="http://www.w3.org/2000/svg" width="54" height="54" viewBox="0 0 54 54"><defs><style>.a{fill:#040507;}.b{fill:#fff;}</style></defs><circle class="a" cx="27" cy="27" r="27"/><g transform="translate(14.608 18.092)"><path class="b" d="M-1006.071,1004.99c.031-.465.045-.931.1-1.393.095-.815.161-1.639.334-2.439a3.833,3.833,0,0,1,3.31-2.993,46.33,46.33,0,0,1,5.885-.375c2.37-.027,4.741-.015,7.11.056a39.777,39.777,0,0,1,4.381.37,3.78,3.78,0,0,1,3.325,3.315,23.375,23.375,0,0,1,.323,3.73,39.681,39.681,0,0,1-.187,5.6,8.284,8.284,0,0,1-.358,1.8,3.725,3.725,0,0,1-3.187,2.54,44.1,44.1,0,0,1-5.885.379c-2.337.027-4.677.017-7.013-.055a41.988,41.988,0,0,1-4.478-.372,3.718,3.718,0,0,1-3.31-3.318c-.153-.985-.207-1.986-.305-2.979-.014-.143-.029-.285-.043-.428Zm12.987-5.358c-2.141.059-3.626.077-5.108.148-1.239.06-2.478.158-3.713.282a1.921,1.921,0,0,0-1.9,1.738,14.971,14.971,0,0,0-.228,1.772,40.272,40.272,0,0,0-.042,5.488,23.515,23.515,0,0,0,.339,2.779,1.726,1.726,0,0,0,1.359,1.363,3.093,3.093,0,0,0,.618.11c1.8.117,3.6.288,5.406.322,2.353.045,4.709.008,7.063-.05,1.271-.031,2.543-.153,3.809-.28a1.934,1.934,0,0,0,1.949-1.854,18.918,18.918,0,0,0,.241-2.4c.038-1.6.051-3.194,0-4.788a17.87,17.87,0,0,0-.335-2.729,1.7,1.7,0,0,0-1.4-1.372,7.735,7.735,0,0,0-1.29-.191C-988.793,999.835-991.266,999.721-993.084,999.632Z" transform="translate(1006.071 -997.776)"/><path class="b" d="M-801.544,1100.6l6.761,3.912-6.761,3.912Z" transform="translate(811.48 -1095.603)"/></g></svg>