<svg xmlns="http://www.w3.org/2000/svg" width="63.895" height="63.896" viewBox="0 0 63.895 63.896"><defs><style>.a{fill:#0da1fc;}.b{fill:#fff;}</style></defs><path class="a" d="M31.948,0A31.948,31.948,0,1,1,0,31.948,31.948,31.948,0,0,1,31.948,0Z"/><g transform="translate(13.378 15.382)"><path class="b" d="M743.074-640.169h6.019v2.023h-2.437l9.982,9.985,2.993-3.042,2.687,2.687,2.675,2.679a7.246,7.246,0,0,0-1.633-7.5,7.16,7.16,0,0,0-3.859-2.094,7.286,7.286,0,0,0-5.923,1.4l-3.229-3.218a11.861,11.861,0,0,1,15.265-.213,11.865,11.865,0,0,1,2.395,15.791,11.4,11.4,0,0,1-6.943,4.953,11.732,11.732,0,0,1-10.627-2.378l-2.986,2.9,1.68,1.67-7.487,7.482a1.979,1.979,0,0,0-.2-.281q-2.287-2.287-4.581-4.567v-.065c.089-.073.186-.139.268-.22q3.457-3.453,6.911-6.909c.087-.087.179-.171.295-.282l1.642,1.678,2.971-2.89a12.039,12.039,0,0,1-2.115-11.586c.123.116.2.187.278.262,1.015,1.014,2.016,2.043,3.05,3.036a1.94,1.94,0,0,1,.646,1.346,7.32,7.32,0,0,0,9.253,6.356,7.245,7.245,0,0,0,3.957-2.747l-4.457-4.458-3.036,3.04L745.156-636.69l-.079.048v2.471h-1.986c0-.525,0-1.03,0-1.534Q743.083-637.937,743.074-640.169Z" transform="translate(-736.861 640.169)"/><path class="b" d="M940.2-315.108v-1.974h16v1.974Z" transform="translate(-923.127 344.216)"/><path class="b" d="M868.561-267.276v-1.96h12v1.96Z" transform="translate(-857.5 300.389)"/></g></svg>