<svg xmlns="http://www.w3.org/2000/svg" width="54" height="54" viewBox="0 0 54 54"><defs><style>.a{fill:#040507;}.b{fill:#fff;}</style></defs><circle class="a" cx="27" cy="27" r="27"/><g transform="translate(16.069 18.092)"><path class="b" d="M-1433.515,834.592a9.159,9.159,0,0,0,6.571-1.85,4.634,4.634,0,0,1-4.188-3.138,4.963,4.963,0,0,0,1.98-.084,4.531,4.531,0,0,1-3.527-4.455,4.57,4.57,0,0,0,1.995.53,4.5,4.5,0,0,1-1.939-3.186,4.369,4.369,0,0,1,.579-2.8,12.828,12.828,0,0,0,9.271,4.693,5.42,5.42,0,0,1-.047-1.734,4.514,4.514,0,0,1,3.212-3.623,4.463,4.463,0,0,1,4.392,1.129.358.358,0,0,0,.274.074,8.53,8.53,0,0,0,2.475-.922c.055-.031.112-.057.209-.1a4.642,4.642,0,0,1-1.847,2.424,8.433,8.433,0,0,0,2.4-.635l.047.053c-.362.424-.706.865-1.092,1.265-.305.317-.667.58-.993.879a.432.432,0,0,0-.136.279,12.926,12.926,0,0,1-5.6,11.067,11.576,11.576,0,0,1-5.352,2.018,13.215,13.215,0,0,1-5.427-.388,12.429,12.429,0,0,1-3.171-1.42A1,1,0,0,1-1433.515,834.592Z" transform="translate(1433.515 -818.781)"/></g></svg>