<svg xmlns="http://www.w3.org/2000/svg" width="63.895" height="63.896" viewBox="0 0 63.895 63.896"><defs><style>.a{fill:#0da1fc;}.b{fill:#fff;}</style></defs><path class="a" d="M31.948,0A31.948,31.948,0,1,1,0,31.948,31.948,31.948,0,0,1,31.948,0Z"/><g transform="translate(20.999 16.38)"><path class="b" d="M372.652-450.792c0-2.331,0-4.661.005-6.991a.98.98,0,0,0-.379-.812q-4.288-3.661-8.564-7.336a.474.474,0,0,1-.179-.286c-.015-.707-.008-1.415-.008-2.144h21.9c0,.737.005,1.473-.008,2.208,0,.076-.105.163-.178.225q-4.256,3.651-8.52,7.293a1.085,1.085,0,0,0-.424.915c.018,1.55,0,3.1.012,4.651a.386.386,0,0,1-.234.4c-1.034.556-2.06,1.127-3.088,1.694-.095.052-.181.12-.272.181Z" transform="translate(-363.526 481.928)"/><path class="b" d="M553.11-567.968a2.375,2.375,0,0,1,2.365,2.384,2.389,2.389,0,0,1-2.374,2.351,2.392,2.392,0,0,1-2.367-2.391A2.378,2.378,0,0,1,553.11-567.968Z" transform="translate(-535.95 573.67)"/><path class="b" d="M377.389-556.843a1.863,1.863,0,0,1-1.863,1.851,1.886,1.886,0,0,1-1.851-1.874,1.862,1.862,0,0,1,1.874-1.84A1.841,1.841,0,0,1,377.389-556.843Z" transform="translate(-372.873 565.14)"/><path class="b" d="M530.2-637.916a1.117,1.117,0,0,1-1.1-1.16,1.129,1.129,0,0,1,1.144-1.094,1.14,1.14,0,0,1,1.108,1.135A1.127,1.127,0,0,1,530.2-637.916Z" transform="translate(-516.018 640.17)"/><path class="b" d="M474.739-587.073a1.116,1.116,0,0,1-1.112-1.151,1.13,1.13,0,0,1,1.136-1.1,1.142,1.142,0,0,1,1.118,1.126A1.126,1.126,0,0,1,474.739-587.073Z" transform="translate(-464.932 593.342)"/></g></svg>