<svg xmlns="http://www.w3.org/2000/svg" width="54" height="54" viewBox="0 0 54 54"><defs><style>.a{fill:#040507;}.b{fill:#fff;}</style></defs><circle class="a" cx="27" cy="27" r="27"/><g transform="translate(18.092 18.092)"><path class="b" d="M-2147.341,788.414q0-5.827,0-11.654v-.233h3.545v1.653c.058-.073.084-.1.1-.13a3.746,3.746,0,0,1,2.789-1.778,5.616,5.616,0,0,1,2.174.121,3.39,3.39,0,0,1,2.555,2.492,8.339,8.339,0,0,1,.316,1.9c.006.1.022.193.033.289v7.342h-3.688c0-2.07,0-4.139-.008-6.209a7.679,7.679,0,0,0-.1-1.158,1.632,1.632,0,0,0-1.553-1.556,1.93,1.93,0,0,0-2.338,1.648,7.791,7.791,0,0,0-.131,1.432c-.015,1.948-.008,3.9-.009,5.843Z" transform="translate(2153.639 -770.598)"/><path class="b" d="M-2276.838,794.826c0-.081.013-.161.013-.242q0-5.7,0-11.395v-.25h3.7v.232q0,5.706,0,11.412c0,.081.007.161.011.242Z" transform="translate(2277.117 -777.011)"/><path class="b" d="M-2280.755,659.681a2.162,2.162,0,0,1-2.076-2.286,2.151,2.151,0,0,1,2.259-2.009,2.151,2.151,0,0,1,2.016,2.253A2.165,2.165,0,0,1-2280.755,659.681Z" transform="translate(2282.833 -655.385)"/></g></svg>