<svg xmlns="http://www.w3.org/2000/svg" width="120.892" height="28.872" viewBox="0 0 120.892 28.872"><defs><style>.a{fill:#fff;}.b{fill:#0da1fc;}</style></defs><g transform="translate(-833.544 -1912)"><path class="a" d="M851.437,1959.424a9.437,9.437,0,0,0-4.942-4.942,9.3,9.3,0,0,0-7.249,0,9.385,9.385,0,0,0-4.962,4.943,9.014,9.014,0,0,0-.74,3.635v17.222h3.2v-10.218a9.52,9.52,0,0,0,2.246,1.474,9.37,9.37,0,0,0,7.5.1,9.432,9.432,0,0,0,4.942-4.943,9.294,9.294,0,0,0,0-7.269Zm-2.9,6.019a6.04,6.04,0,0,1-1.321,1.94,6.419,6.419,0,0,1-1.965,1.31,6.109,6.109,0,0,1-8.019-3.25,6.172,6.172,0,0,1,0-4.768,6.094,6.094,0,0,1,3.25-3.25,6.176,6.176,0,0,1,4.77,0,6.445,6.445,0,0,1,1.965,1.311,6.116,6.116,0,0,1,1.321,6.708Z" transform="translate(0 -39.408)"/><path class="a" d="M1558.047,1953.252h.461v3.2h-.461a6.346,6.346,0,0,0-2.014.366,6.107,6.107,0,0,0-1.992,1.145,6.417,6.417,0,0,0-1.53,1.949,6.281,6.281,0,0,0-.637,2.8v9.359h-3.233v-9.406a9.3,9.3,0,0,1,3.06-6.922,9.753,9.753,0,0,1,2.992-1.838A9.234,9.234,0,0,1,1558.047,1953.252Z" transform="translate(-675.051 -38.942)"/><path class="a" d="M2501.043,1956.844h-.457a6.284,6.284,0,0,0-1.994.363,6.041,6.041,0,0,0-1.973,1.134,6.347,6.347,0,0,0-1.515,1.931,6.221,6.221,0,0,0-.631,2.769v9.27h-3.2v-9.316a9.211,9.211,0,0,1,3.031-6.855,9.658,9.658,0,0,1,2.963-1.821,9.147,9.147,0,0,1,3.322-.64h.457Z" transform="translate(-1564.891 -39.345)"/><path class="a" d="M2671.858,1971.595a5.915,5.915,0,0,1-2.967.566h0a6.079,6.079,0,0,1-2.883-.914,6.32,6.32,0,0,1-1.842-1.76,6.9,6.9,0,0,1-.734-1.467l14.964.009.118-1.457a8.7,8.7,0,0,0-.989-4.758,9.3,9.3,0,0,0-3.365-3.668,9.456,9.456,0,0,0-10.3.292,8.912,8.912,0,0,0-2.538,2.654,9.162,9.162,0,0,0-1.223,3.153,9.4,9.4,0,0,0,1.318,6.87,9.228,9.228,0,0,0,7.277,4.226,9.043,9.043,0,0,0,4.536-.871l.409-.2-1.372-2.875Zm-8.6-6.771a5.965,5.965,0,0,1,.778-2.031,5.888,5.888,0,0,1,1.654-1.734,6.194,6.194,0,0,1,2.139-.952,6.448,6.448,0,0,1,2.356-.088,5.791,5.791,0,0,1,2.279.844,6.191,6.191,0,0,1,1.958,1.96,5.91,5.91,0,0,1,.821,2.036Z" transform="translate(-1724.108 -42.264)"/><path class="a" d="M1198,1953.679v9.316a5.8,5.8,0,0,1-.5,2.379,6.7,6.7,0,0,1-1.33,1.972,6.034,6.034,0,0,1-1.94,1.321,5.762,5.762,0,0,1-4.342.116,6.217,6.217,0,0,1-1.978-1.119,6.072,6.072,0,0,1-1.51-1.925,6.241,6.241,0,0,1-.632-2.744v-9.29h-3.2v9.344h0a9.209,9.209,0,0,0,3.031,6.8,9.639,9.639,0,0,0,2.963,1.82,9.142,9.142,0,0,0,3.321.641,8.931,8.931,0,0,0,3.6-.74,9.48,9.48,0,0,0,5.719-8.577v-9.316Z" transform="translate(-329.484 -39.345)"/><g transform="translate(918.222 1917.616)"><path class="a" d="M2345.621,2012.277v15.353h3.2v-15.353a2.629,2.629,0,0,1-1.587.542A2.72,2.72,0,0,1,2345.621,2012.277Z" transform="translate(-2345.621 -2012.277)"/></g><circle class="b" cx="1.554" cy="1.554" r="1.554" transform="translate(918.222 1914.218)"/><g transform="translate(902.634 1912)"><path class="a" d="M2071.65,1913.359a9.345,9.345,0,0,0-4.386,7.851v2.8q0,1.056.018,2.185c.012.749.018.29.018,1v5.772h3.2v-1.74c-.025-.409-.036-.868-.036-1.375v-3.707h7.771v-3.2h-7.771v-1.732a5.9,5.9,0,0,1,.48-2.349,6.109,6.109,0,0,1,3.275-3.219,6.282,6.282,0,0,1,1.737-.4c.4-.04,1.347-.067,2.279-.08V1912C2075.944,1912.044,2073.4,1912.272,2071.65,1913.359Z" transform="translate(-2067.264 -1912)"/></g><path class="a" d="M1729.858,1971.595a5.915,5.915,0,0,1-2.967.566h0a6.08,6.08,0,0,1-2.883-.914,6.317,6.317,0,0,1-1.842-1.76,6.877,6.877,0,0,1-.734-1.467l14.964.009.119-1.457a8.7,8.7,0,0,0-.989-4.758,9.3,9.3,0,0,0-3.366-3.668,9.456,9.456,0,0,0-10.3.292,8.918,8.918,0,0,0-2.538,2.654,9.154,9.154,0,0,0-1.223,3.153,9.4,9.4,0,0,0,1.318,6.87,9.228,9.228,0,0,0,7.277,4.226,9.043,9.043,0,0,0,4.536-.871l.409-.2-1.371-2.875Zm-8.6-6.771a5.967,5.967,0,0,1,.778-2.031,5.894,5.894,0,0,1,1.654-1.734,6.2,6.2,0,0,1,2.139-.952,6.447,6.447,0,0,1,2.356-.088,5.8,5.8,0,0,1,2.279.844,6.194,6.194,0,0,1,1.958,1.96,5.9,5.9,0,0,1,.82,2.036Z" transform="translate(-834.861 -42.264)"/></g></svg>