<svg xmlns="http://www.w3.org/2000/svg" width="54" height="54" viewBox="0 0 54 54"><defs><style>.a,.d{fill:none;}.a{stroke:#b7a4a4;stroke-width:0.4px;}.b{fill:#fff;}.c{stroke:none;}</style></defs><g transform="translate(-107 -779)"><g class="a" transform="translate(107 779)"><circle class="c" cx="27" cy="27" r="27"/><circle class="d" cx="27" cy="27" r="26.8"/></g><g transform="translate(129 797.092)"><path class="b" d="M-706.247,502.23c.3.023.6.046.9.07.207.017.414.037.626.056v2.834c-.085,0-.164,0-.243,0-.6.009-1.2,0-1.792.031a1.117,1.117,0,0,0-1.185,1.172c-.035.775-.008,1.554-.008,2.356h3.123l-.41,3.176h-2.721v8.12h-3.274v-8.113h-2.733v-3.171h2.73c0-.089,0-.157,0-.224,0-.83-.017-1.66.017-2.489a3.967,3.967,0,0,1,1.04-2.662,3.621,3.621,0,0,1,1.961-1.049c.2-.042.408-.072.612-.108Z" transform="translate(713.965 -502.23)"/></g></g></svg>